#!OML:ASF C:\Vicon Data\Big\jianyuan-13\jianyuan\Session 1\Capture.male.ASF
:FULLY-SPECIFIED
:DEGREES
42
root -8.198062 17.779514 -20.963805 8.379083 12.329672 0.260955
lowerback -11.853135 -0.946182 -0.679643 
upperback 2.041582 -1.209137 0.548472 
thorax 8.877653 -0.635582 0.735114 
lowerneck -8.181743 -1.788871 2.962782 
upperneck -0.252680 -2.594664 -2.927276 
head 1.232351 -1.353953 -1.516558 
rclavicle 0.000000 0.000000 
rhumerus -38.346549 -16.247161 -79.983308 
rradius 28.694135 
rwrist 30.539509 
rhand -17.402460 -16.249996 
rfingers 0.000000 
rthumb 8.846982 -46.044559 
lclavicle 0.000000 0.000000 
lhumerus -36.242436 27.756118 75.104865 
lradius 26.068972 
lwrist -54.318131 
lhand -19.839170 0.725512 
lfingers 0.000000 
lthumb 6.495091 30.605872 
rfemur -21.747415 0.548946 23.304102 
rtibia 26.355327 
rfoot -14.233669 -5.520038 
rtoes -29.071886 
lfemur -6.396115 4.781928 -16.983857 
ltibia 45.437810 
lfoot 2.343181 8.201624 
ltoes -35.292044 
43
root -8.213617 17.769559 -20.899415 8.224839 12.399887 0.116448
lowerback -11.719572 -0.906878 -0.544457 
upperback 2.062949 -1.179472 0.571184 
thorax 8.820506 -0.615039 0.690470 
lowerneck -8.142885 -1.880513 3.118617 
upperneck -0.160485 -2.725674 -3.078394 
head 1.248307 -1.421947 -1.597488 
rclavicle 0.000000 0.000000 
rhumerus -38.060578 -15.822212 -80.322873 
rradius 28.878618 
rwrist 30.607668 
rhand -17.233770 -16.524689 
rfingers 0.000000 
rthumb 9.009795 -46.312312 
lclavicle 0.000000 0.000000 
lhumerus -36.612402 28.414976 74.465580 
lradius 25.847090 
lwrist -54.988079 
lhand -19.953517 0.614878 
lfingers 0.000000 
lthumb 6.384646 30.498632 
rfemur -21.422274 0.640371 23.563239 
rtibia 26.437475 
rfoot -14.506425 -5.539069 
rtoes -28.607497 
lfemur -7.199488 5.259719 -16.617377 
ltibia 46.963938 
lfoot 2.043631 8.479379 
ltoes -35.948820 
44
root -8.227063 17.759929 -20.831026 8.172721 12.415404 -0.124085
lowerback -11.778100 -0.817544 -0.296740 
upperback 2.073156 -1.100926 0.615580 
thorax 8.859975 -0.565644 0.612285 
lowerneck -8.204360 -1.854497 2.970498 
upperneck -0.038930 -2.681424 -2.865872 
head 1.302676 -1.395701 -1.504731 
rclavicle 0.000000 0.000000 
rhumerus -37.761948 -15.635081 -80.495975 
rradius 28.788369 
rwrist 30.853077 
rhand -17.472540 -16.325102 
rfingers 0.000000 
rthumb 8.779343 -46.122488 
lclavicle 0.000000 0.000000 
lhumerus -36.933663 28.595141 74.097373 
lradius 25.808348 
lwrist -55.295601 
lhand -20.028893 0.655968 
lfingers 0.000000 
lthumb 6.311910 30.541904 
rfemur -21.226437 0.577658 23.950739 
rtibia 26.507478 
rfoot -14.680664 -5.405957 
rtoes -28.518154 
lfemur -8.103334 5.657499 -16.191655 
ltibia 48.447250 
lfoot 1.400604 8.560593 
ltoes -35.476970 
45
root -8.240865 17.750453 -20.770656 8.066231 12.493474 -0.160479
lowerback -11.634130 -0.787764 -0.269832 
upperback 2.084134 -1.064333 0.605568 
thorax 8.787213 -0.546354 0.595124 
lowerneck -8.181327 -1.902936 3.033711 
upperneck 0.042762 -2.748100 -2.948730 
head 1.321523 -1.430377 -1.545574 
rclavicle 0.000000 0.000000 
rhumerus -37.485774 -15.508959 -80.662729 
rradius 28.812431 
rwrist 30.939307 
rhand -17.277797 -16.125551 
rfingers 0.000000 
rthumb 8.967296 -45.914939 
lclavicle 0.000000 0.000000 
lhumerus -37.275540 28.979424 73.601569 
lradius 25.717560 
lwrist -55.655450 
lhand -20.025914 0.534121 
lfingers 0.000000 
lthumb 6.314784 30.419988 
rfemur -20.926704 0.387962 24.136973 
rtibia 26.536832 
rfoot -14.819092 -5.272356 
rtoes -28.396463 
lfemur -8.961257 5.926857 -16.003037 
ltibia 49.848486 
lfoot 0.589102 8.598343 
ltoes -35.147425 
46
root -8.254541 17.739815 -20.708646 7.925457 12.471455 -0.276542
lowerback -11.559027 -0.737270 -0.200471 
upperback 2.144196 -1.013869 0.680516 
thorax 8.808529 -0.520799 0.646015 
lowerneck -8.171877 -1.989061 2.965773 
upperneck 0.091939 -2.853019 -3.048248 
head 1.332081 -1.484956 -1.569697 
rclavicle 0.000000 0.000000 
rhumerus -37.065595 -14.834035 -81.010204 
rradius 28.940792 
rwrist 30.531361 
rhand -17.335876 -16.437516 
rfingers 0.000000 
rthumb 8.911236 -46.229360 
lclavicle 0.000000 0.000000 
lhumerus -37.612335 29.546966 73.188139 
lradius 25.646932 
lwrist -55.986536 
lhand -19.985931 0.398823 
lfingers 0.000000 
lthumb 6.353392 30.283513 
rfemur -20.605592 0.354030 24.387503 
rtibia 26.547116 
rfoot -14.927771 -5.204344 
rtoes -28.480669 
lfemur -9.742419 6.257802 -15.753924 
ltibia 51.114181 
lfoot -0.178349 8.325147 
ltoes -35.682723 
